#!OML:ASF F:\VICON\USERDATA\INSTALL\rory3\rory3.ASF
:FULLY-SPECIFIED
:DEGREES
1244
root 2.14202 16.9309 -0.342097 206.189 128.128 201.499
lowerback 15.3777 -0.865215 2.02889
upperback 8.17201 -0.498359 3.51636
thorax 0.050646 -0.129769 2.61414
lowerneck -14.0105 1.74906 -9.22141
upperneck 36.7863 8.23811 -4.44055
head 15.2279 1.97235 1.21096
rclavicle -8.26944e-014 3.49861e-014
rhumerus -23.1579 19.9383 -70.7515
rradius 66.9413
rwrist 15.4265
rhand -31.286 6.51392
rfingers 7.12502
rthumb -4.55931 -23.417
lclavicle -8.26944e-014 3.49861e-014
lhumerus -26.5244 -5.61965 90.2282
lradius 67.996
lwrist 3.62283
lhand -20.6636 27.5145
lfingers 7.12502
lthumb 5.69915 57.4179
rfemur -36.5501 -9.67164 0.439635
rtibia 56.8575
rfoot -19.703 3.02842
rtoes -23.1116
lfemur -35.0298 -1.74002 -6.74056
ltibia 29.1834
lfoot 14.2522 -12.3593
ltoes -31.9557
1245
root 2.21061 16.8687 -0.434649 206.134 128.338 201.107
lowerback 15.6837 -0.856368 2.29386
upperback 8.14441 -0.434436 3.55363
thorax -0.142793 -0.0905814 2.49809
lowerneck -13.8926 1.64089 -9.3724
upperneck 36.7281 8.02324 -4.26831
head 15.1579 1.88947 1.26932
rclavicle -3.33958e-014 4.77083e-014
rhumerus -23.6057 20.87 -70.5772
rradius 67.9787
rwrist 15.0559
rhand -31.3414 7.0202
rfingers 7.12502
rthumb -4.6128 -22.9096
lclavicle -3.33958e-014 4.77083e-014
lhumerus -26.5858 -6.30036 90.5339
lradius 68.3275
lwrist 3.36079
lhand -20.329 27.6166
lfingers 7.12502
lthumb 6.02223 57.511
rfemur -37.2684 -9.71307 0.254328
rtibia 57.5123
rfoot -20.1192 2.92251
rtoes -23.9077
lfemur -35.0178 -1.43563 -6.96928
ltibia 29.4692
lfoot 13.8814 -12.6658
ltoes -32.6239
1246
root 2.27971 16.7976 -0.527955 206.284 128.651 200.866
lowerback 15.889 -0.785499 2.40386
upperback 8.12472 -0.318943 3.50994
thorax -0.275633 -0.0301085 2.37429
lowerneck -13.9596 1.50927 -9.53036
upperneck 36.7598 7.76439 -3.96739
head 15.1663 1.79178 1.38054
rclavicle 1.74931e-014 -3.81667e-014
rhumerus -24.0682 21.5892 -70.4904
rradius 69.0326
rwrist 14.8741
rhand -31.5114 7.44501
rfingers 7.12502
rthumb -4.77699 -22.4811
lclavicle 1.74931e-014 -3.81667e-014
lhumerus -26.6946 -7.08983 90.7483
lradius 68.9231
lwrist 2.80104
lhand -19.6332 27.5922
lfingers 7.12502
lthumb 6.6939 57.4664
rfemur -38.1512 -9.89086 -0.0307447
rtibia 58.2045
rfoot -20.5895 2.88882
rtoes -24.5684
lfemur -35.1332 -0.986149 -7.42758
ltibia 29.8306
lfoot 13.4652 -12.939
ltoes -33.8741
1247
root 2.34819 16.725 -0.620485 206.367 128.955 200.642
lowerback 16.1909 -0.741116 2.47392
upperback 8.1408 -0.238331 3.43501
thorax -0.419477 0.0132344 2.24608
lowerneck -14.1105 1.40784 -9.57988
upperneck 36.7693 7.58574 -3.82174
head 15.1978 1.71976 1.42356
rclavicle 1.04958e-013 6.36111e-015
rhumerus -24.5303 22.2078 -70.5421
rradius 70.1437
rwrist 14.7327
rhand -31.5533 7.99182
rfingers 7.12502
rthumb -4.81745 -21.9334
lclavicle 1.04958e-013 6.36111e-015
lhumerus -26.8627 -7.97473 90.9367
lradius 69.4705
lwrist 2.89523
lhand -20.5201 27.3401
lfingers 7.12502
lthumb 5.83765 57.2397
rfemur -38.9801 -9.98788 -0.373464
rtibia 58.9468
rfoot -21.0105 2.77715
rtoes -24.1978
lfemur -35.209 -0.523054 -7.94565
ltibia 30.3572
lfoot 12.647 -12.8741
ltoes -34.4551
1248
root 2.42034 16.644 -0.717907 206.578 129.293 200.608
lowerback 16.5188 -0.730087 2.39986
upperback 8.13919 -0.21983 3.36408
thorax -0.593278 0.021221 2.21341
lowerneck -14.1672 1.36771 -9.5921
upperneck 36.7465 7.49722 -3.75137
head 15.196 1.68599 1.44077
rclavicle -3.33958e-014 -2.8625e-014
rhumerus -24.9898 22.8303 -70.5933
rradius 71.3118
rwrist 14.7415
rhand -31.1966 8.63232
rfingers 7.12502
rthumb -4.47294 -21.3004
lclavicle -3.33958e-014 -2.8625e-014
lhumerus -27.0932 -8.70223 91.1768
lradius 70.1069
lwrist 2.45785
lhand -19.9154 28.1626
lfingers 7.12502
lthumb 6.42149 58.0453
rfemur -39.8207 -10.2076 -0.911756
rtibia 59.7565
rfoot -21.2042 3.12338
rtoes -21.5269
lfemur -35.2892 0.00460417 -8.70079
ltibia 31.0346
lfoot 10.5319 -12.5706
ltoes -33.2424
1249
root 2.49159 16.5582 -0.81686 206.678 129.551 200.34
lowerback 16.7551 -0.780258 2.23855
upperback 8.12654 -0.292407 3.46489
thorax -0.726628 -0.0211368 2.42601
lowerneck -14.0906 1.42538 -9.66097
upperneck 36.6 7.57966 -3.80761
head 15.1066 1.71056 1.43748
rclavicle -6.52014e-014 1.36764e-013
rhumerus -25.3448 23.9008 -70.474
rradius 72.5712
rwrist 14.865
rhand -30.8473 8.79458
rfingers 7.12502
rthumb -4.13569 -21.145
lclavicle -6.52014e-014 1.36764e-013
lhumerus -27.3181 -9.12838 91.5532
lradius 70.6743
lwrist 2.00327
lhand -20.1253 27.9881
lfingers 7.12502
lthumb 6.21885 57.8768
rfemur -40.7252 -10.5061 -1.20831
rtibia 60.6028
rfoot -21.2511 3.60766
rtoes -24.4712
lfemur -35.4955 0.676065 -9.34004
ltibia 31.7945
lfoot 7.44837 -12.252
ltoes -30.4368
1250
root 2.56095 16.476 -0.91539 206.788 129.829 200.07
lowerback 16.9701 -0.813524 1.97524
upperback 8.17187 -0.35933 3.57795
thorax -0.785454 -0.0624207 2.70893
lowerneck -14.1588 1.45947 -9.64785
upperneck 36.4614 7.65421 -3.9491
head 15.0643 1.72528 1.38725
rclavicle -5.08889e-014 9.85972e-014
rhumerus -25.5077 25.0576 -70.2766
rradius 73.7357
rwrist 15.0556
rhand -30.9264 8.58937
rfingers 7.12502
rthumb -4.2121 -21.3487
lclavicle -5.08889e-014 9.85972e-014
lhumerus -27.4822 -9.63176 91.9052
lradius 71.3095
lwrist 1.36062
lhand -22.0178 26.5139
lfingers 7.12502
lthumb 4.39161 56.4484
rfemur -41.6776 -10.8592 -1.50118
rtibia 61.4946
rfoot -21.3404 4.00907
rtoes -26.0745
lfemur -35.846 1.63234 -10.1304
ltibia 32.6176
lfoot 4.64176 -10.816
ltoes -29.6363
1251
root 2.62631 16.4007 -1.0152 206.944 130.162 199.773
lowerback 17.0746 -0.775272 1.76209
upperback 8.26652 -0.335382 3.63359
thorax -0.737657 -0.0564169 2.88584
lowerneck -14.3125 1.44453 -9.67056
upperneck 36.3301 7.63615 -3.97515
head 15.038 1.70808 1.37822
rclavicle -6.36111e-015 -4.6118e-014
rhumerus -25.6137 25.8449 -70.0687
rradius 74.8857
rwrist 15.4805
rhand -31.1046 8.66709
rfingers 7.12502
rthumb -4.38416 -21.2675
lclavicle -6.36111e-015 -4.6118e-014
lhumerus -27.5791 -10.3309 92.215
lradius 72.121
lwrist 0.242496
lhand -20.6153 30.1095
lfingers 7.12502
lthumb 5.74581 60.0116
rfemur -42.7827 -11.0571 -1.82855
rtibia 62.3808
rfoot -21.3996 4.2901
rtoes -25.6617
lfemur -36.4209 2.53038 -10.8326
ltibia 33.5326
lfoot 2.55439 -9.71849
ltoes -27.1117
1252
root 2.6877 16.3291 -1.11564 207.348 130.529 199.661
lowerback 17.1175 -0.734041 1.48716
upperback 8.31108 -0.323123 3.62528
thorax -0.711113 -0.0582548 3.03139
lowerneck -14.5287 1.44741 -9.6924
upperneck 36.3108 7.66896 -3.98878
head 15.0784 1.70681 1.38522
rclavicle -5.40694e-014 3.18055e-015
rhumerus -25.7427 26.4114 -69.8712
rradius 76.0583
rwrist 16.2523
rhand -30.8267 9.075
rfingers 7.12502
rthumb -4.11579 -20.865
lclavicle -5.40694e-014 3.18055e-015
lhumerus -27.7416 -11.2439 92.5742
lradius 72.9938
lwrist -0.422065
lhand -20.5564 31.8523
lfingers 7.12502
lthumb 5.80265 61.7529
rfemur -44.0116 -11.297 -2.28352
rtibia 63.246
rfoot -21.3913 4.65554
rtoes -23.6364
lfemur -37.226 3.28344 -11.5872
ltibia 34.5208
lfoot 0.123368 -10.6826
ltoes -23.2093
